<?xml version="1.0" encoding="UTF-8"?>
<svg xmlns="http://www.w3.org/2000/svg" role="img" aria-labelledby="title desc" viewBox="0 0 1200 800" preserveAspectRatio="xMidYMid slice">
  <title id="title">MetaEthics Hero Illustration</title>
  <desc id="desc">Abstract network grid with shield symbolizing trust and ethical AI, in blue, teal, and yellow brand colors.</desc>
  <defs>
    <linearGradient id="bgFade" x1="0" y1="0" x2="1" y2="1">
      <stop offset="0%" stop-color="#1A2E40"/>
      <stop offset="100%" stop-color="#0f1e2a"/>
    </linearGradient>
    <linearGradient id="tealFade" x1="0" y1="0" x2="1" y2="1">
      <stop offset="0%" stop-color="#2CB1A1" stop-opacity="1"/>
      <stop offset="100%" stop-color="#2CB1A1" stop-opacity="0.2"/>
    </linearGradient>
    <radialGradient id="glow" cx="50%" cy="40%" r="40%">
      <stop offset="0%" stop-color="#2CB1A1" stop-opacity="0.45"/>
      <stop offset="100%" stop-color="#2CB1A1" stop-opacity="0"/>
    </radialGradient>
  </defs>

  <!-- Background -->
  <rect width="1200" height="800" fill="url(#bgFade)"/>
  <rect width="1200" height="800" fill="url(#glow)"/>

  <!-- Grid -->
  <g stroke="#27445f" stroke-width="1">
    <g opacity="0.45">
      <!-- vertical lines -->
      <path d="M50 0 V800 M150 0 V800 M250 0 V800 M350 0 V800 M450 0 V800 M550 0 V800 M650 0 V800 M750 0 V800 M850 0 V800 M950 0 V800 M1050 0 V800 M1150 0 V800"/>
      <!-- horizontal lines -->
      <path d="M0 50 H1200 M0 150 H1200 M0 250 H1200 M0 350 H1200 M0 450 H1200 M0 550 H1200 M0 650 H1200 M0 750 H1200"/>
    </g>
  </g>

  <!-- Connections -->
  <g stroke="url(#tealFade)" stroke-width="3" opacity="0.9">
    <path d="M180 560 C 360 520, 460 420, 640 420" fill="none"/>
    <path d="M280 220 C 420 300, 520 300, 760 260" fill="none"/>
    <path d="M320 640 C 520 600, 740 580, 980 520" fill="none"/>
  </g>

  <!-- Nodes -->
  <g>
    <circle cx="180" cy="560" r="6" fill="#2CB1A1"/>
    <circle cx="640" cy="420" r="6" fill="#2CB1A1"/>
    <circle cx="280" cy="220" r="6" fill="#2CB1A1"/>
    <circle cx="760" cy="260" r="6" fill="#2CB1A1"/>
    <circle cx="320" cy="640" r="6" fill="#2CB1A1"/>
    <circle cx="980" cy="520" r="6" fill="#2CB1A1"/>
    <circle cx="900" cy="340" r="4" fill="#FFC857"/>
    <circle cx="540" cy="300" r="4" fill="#FFC857"/>
  </g>

  <!-- Shield motif -->
  <g transform="translate(800,320) scale(1.2)">
    <path d="M100 0 L190 30 V108c0 73-63 95-90 102-27-7-90-29-90-102V30z" fill="#1A2E40" stroke="#2CB1A1" stroke-width="4"/>
    <path d="M58 58 v60 h14 V88 l18 24 18-24 v30 h14 V58h-14l-18 24-18-24H58z" fill="#2CB1A1"/>
    <circle cx="160" cy="58" r="7" fill="#FFC857"/>
  </g>

  <!-- Accent rings -->
  <g fill="none" stroke="#2CB1A1" stroke-opacity="0.25">
    <circle cx="900" cy="320" r="220" stroke-width="2"/>
    <circle cx="900" cy="320" r="300" stroke-width="2"/>
  </g>
</svg>
